<svg width="60" height="42" viewBox="0 0 60 42" fill="none" xmlns="http://www.w3.org/2000/svg">
<path d="M48.2812 41.6233H40.7812C37.7138 41.6233 34.9383 39.7202 33.7111 36.7748L32.8917 34.8084C32.4101 33.6525 31.3211 32.9057 30.1172 32.9057C28.9133 32.9057 27.8247 33.6525 27.3427 34.8084L26.5233 36.7748C25.296 39.7202 22.5206 41.6233 19.4531 41.6233H11.7187C5.25696 41.6233 0 36.1154 0 29.345V12.2783C0 5.50795 5.25696 0 11.7187 0H48.2812C54.743 0 60 5.50795 60 12.2783V16.944C60 18.3004 58.9508 19.3997 57.6562 19.3997C56.3617 19.3997 55.3125 18.3004 55.3125 16.944V12.2783C55.3125 8.21588 52.1585 4.9113 48.2812 4.9113H11.7187C7.84149 4.9113 4.6875 8.21588 4.6875 12.2783V29.345C4.6875 33.4074 7.84149 36.712 11.7187 36.712H19.4531C20.6566 36.712 21.7456 35.9652 22.2276 34.8094L23.047 32.8429C24.2743 29.8976 27.0497 27.9944 30.1172 27.9944C33.1846 27.9944 35.9601 29.8976 37.1873 32.8429L38.0067 34.8094C38.4883 35.9652 39.5773 36.712 40.7812 36.712H48.2812C52.1585 36.712 55.3125 33.4074 55.3125 29.345C55.3125 27.9887 56.3617 26.8894 57.6562 26.8894C58.9508 26.8894 60 27.9887 60 29.345C60 36.1154 54.743 41.6233 48.2812 41.6233ZM50.039 18.9085C50.039 14.8461 46.885 11.5416 43.0078 11.5416C39.1305 11.5416 35.9765 14.8461 35.9765 18.9085C35.9765 22.9709 39.1305 26.2755 43.0078 26.2755C46.885 26.2755 50.039 22.9709 50.039 18.9085ZM45.3515 18.9085C45.3515 20.2625 44.3001 21.3642 43.0078 21.3642C41.7155 21.3642 40.664 20.2625 40.664 18.9085C40.664 17.5546 41.7155 16.4529 43.0078 16.4529C44.3001 16.4529 45.3515 17.5546 45.3515 18.9085ZM24.0234 18.9085C24.0234 14.8461 20.8694 11.5416 16.9922 11.5416C13.1149 11.5416 9.96093 14.8461 9.96093 18.9085C9.96093 22.9709 13.1149 26.2755 16.9922 26.2755C20.8694 26.2755 24.0234 22.9709 24.0234 18.9085ZM19.3359 18.9085C19.3359 20.2625 18.2844 21.3642 16.9922 21.3642C15.6999 21.3642 14.6484 20.2625 14.6484 18.9085C14.6484 17.5546 15.6999 16.4529 16.9922 16.4529C18.2844 16.4529 19.3359 17.5546 19.3359 18.9085Z" fill="#30379F"/>
</svg>
