<svg width="17" height="16" viewBox="0 0 17 16" fill="none" xmlns="http://www.w3.org/2000/svg">
<path d="M11.1031 11.2163L11.9 10.4663L9.0844 7.79967V4.44967H8.0219V8.19967L11.1031 11.2163ZM8.50002 14.6663C7.53197 14.6663 6.61703 14.4913 5.75523 14.1413C4.89342 13.7913 4.14082 13.3136 3.49742 12.708C2.85401 12.1025 2.34637 11.3941 1.9745 10.583C1.60262 9.7719 1.41669 8.91079 1.41669 7.99967C1.41669 7.08856 1.60262 6.22745 1.9745 5.41634C2.34637 4.60523 2.85401 3.8969 3.49742 3.29134C4.14082 2.68579 4.89342 2.20801 5.75523 1.85801C6.61703 1.50801 7.53197 1.33301 8.50002 1.33301C9.46808 1.33301 10.383 1.50801 11.2448 1.85801C12.1066 2.20801 12.8592 2.68579 13.5026 3.29134C14.146 3.8969 14.6537 4.60523 15.0255 5.41634C15.3974 6.22745 15.5834 7.08856 15.5834 7.99967C15.5834 8.91079 15.3974 9.7719 15.0255 10.583C14.6537 11.3941 14.146 12.1025 13.5026 12.708C12.8592 13.3136 12.1066 13.7913 11.2448 14.1413C10.383 14.4913 9.46808 14.6663 8.50002 14.6663ZM8.50002 13.6663C10.1528 13.6663 11.5695 13.1108 12.75 11.9997C13.9306 10.8886 14.5209 9.55523 14.5209 7.99967C14.5209 6.44412 13.9306 5.11079 12.75 3.99967C11.5695 2.88856 10.1528 2.33301 8.50002 2.33301C6.84724 2.33301 5.43058 2.88856 4.25002 3.99967C3.06946 5.11079 2.47919 6.44412 2.47919 7.99967C2.47919 9.55523 3.06946 10.8886 4.25002 11.9997C5.43058 13.1108 6.84724 13.6663 8.50002 13.6663Z" fill="#5ED6FF"/>
</svg>
