<svg width="19" height="19" viewBox="0 0 19 19" fill="none" xmlns="http://www.w3.org/2000/svg">
<path d="M2.77087 15.8337C2.45421 15.8337 2.17712 15.7149 1.93962 15.4774C1.70212 15.2399 1.58337 14.9628 1.58337 14.6462V4.35449C1.58337 4.03783 1.70212 3.76074 1.93962 3.52324C2.17712 3.28574 2.45421 3.16699 2.77087 3.16699H16.2292C16.5459 3.16699 16.823 3.28574 17.0605 3.52324C17.298 3.76074 17.4167 4.03783 17.4167 4.35449V14.6462C17.4167 14.9628 17.298 15.2399 17.0605 15.4774C16.823 15.7149 16.5459 15.8337 16.2292 15.8337H2.77087ZM9.50004 9.85658L2.77087 5.44303V14.6462H16.2292V5.44303L9.50004 9.85658ZM9.50004 8.66908L16.15 4.35449H2.86983L9.50004 8.66908ZM2.77087 5.44303V4.35449V5.44303V14.6462V5.44303Z" fill="#5ED6FF"/>
</svg>
