<svg width="186" height="147" viewBox="0 0 186 147" fill="none" xmlns="http://www.w3.org/2000/svg">
<g opacity="0.3" clip-path="url(#clip0_169_1124)">
<path fill-rule="evenodd" clip-rule="evenodd" d="M185.184 22.9588C157.448 35.7137 143.58 50.7006 143.58 67.9197C155.402 69.1952 165.178 73.7125 172.908 81.4718C180.637 89.2311 184.502 98.2125 184.502 108.416C184.502 119.258 180.751 128.399 173.249 135.839C165.746 143.28 156.311 147 144.944 147C132.212 147 121.186 142.164 111.865 132.491C102.544 122.819 97.8831 111.074 97.8831 97.256C97.8831 55.8024 122.664 23.3841 172.226 0L185.184 22.9588ZM87.3012 22.9588C59.3374 35.7137 45.3557 50.7006 45.3557 67.9197C57.4051 69.1952 67.2946 73.7125 75.0244 81.4718C82.7543 89.2311 86.6191 98.2125 86.6191 108.416C86.6191 119.258 82.8111 128.399 75.195 135.839C67.5788 143.28 58.0872 147 46.7198 147C33.9883 147 23.0189 142.164 13.8113 132.491C4.60373 122.819 0 111.074 0 97.256C0 55.8024 24.6669 23.3841 74.0014 0L87.3012 22.9588Z" fill="#FC244D"/>
</g>
<defs>
<clipPath id="clip0_169_1124">
<rect width="186" height="147" fill="white"/>
</clipPath>
</defs>
</svg>
