<svg width="22" height="22" viewBox="0 0 22 22" fill="none" xmlns="http://www.w3.org/2000/svg">
<path d="M18.7782 18.7782C16.7006 20.8558 13.9382 22 11 22C8.06184 22 5.29944 20.8558 3.22181 18.7782C1.14418 16.7006 0 13.9382 0 11C0 8.06176 1.14418 5.29944 3.22181 3.22182C5.29944 1.14419 8.0618 1.90735e-06 11 1.90735e-06C13.9382 1.90735e-06 16.7006 1.14419 18.7781 3.22182C20.8558 5.29944 22 8.0618 22 11C22 13.9382 20.8558 16.7006 18.7782 18.7782ZM18.7836 8.45137L20.6356 9.79051C20.4819 8.54569 20.091 7.35557 19.4859 6.27306L18.7836 8.45137ZM17.9148 9.41531L14.839 10.4287L13.7712 13.7152L15.6826 16.3278L19.1244 16.322C20.0787 14.8717 20.6238 13.1928 20.7 11.4293L17.9148 9.41531ZM11 8.29998L8.43219 10.1656L9.41303 13.1843H12.5871L13.5679 10.1656L11 8.29998ZM7.16212 10.4322L4.08154 9.43445L1.30103 11.457C1.38215 13.2197 1.93205 14.8971 2.89065 16.345L6.33159 16.3411L8.22953 13.7174L7.16212 10.4322ZM2.50074 6.29732C1.89893 7.38129 1.51147 8.57235 1.36125 9.81773L3.20921 8.47352L2.50074 6.29732ZM18.108 17.6139L15.8253 17.6178L15.1209 19.7972C16.1279 19.3247 17.0559 18.6757 17.8658 17.8658C17.9484 17.7832 18.0288 17.6989 18.108 17.6139ZM13.5816 20.3645L14.6404 17.0885L12.7281 14.4746H9.27415L7.37656 17.0979L8.445 20.3715C9.26753 20.5943 10.1249 20.7098 11 20.7098C11.8845 20.7098 12.751 20.592 13.5816 20.3645ZM6.90411 19.8087L6.19354 17.6315L3.91072 17.6341C3.98396 17.7122 4.0581 17.7897 4.13418 17.8658C4.95082 18.6825 5.88745 19.3352 6.90411 19.8087ZM3.41488 4.9374L4.47937 8.20708L7.55964 9.20474L10.3549 7.1739V3.93592L7.56889 1.91179C6.29465 2.39219 5.12591 3.14242 4.13414 4.13419C3.87794 4.39038 3.63843 4.6588 3.41488 4.9374ZM9.15008 1.46571L11 2.80976L12.8499 1.46571C12.2465 1.34994 11.6279 1.29024 11 1.29024C10.3721 1.29024 9.75343 1.34998 9.15008 1.46571ZM14.4311 1.91175L11.6451 3.93588V7.17386L14.4374 9.20259L17.5124 8.18941L18.5679 4.91581C18.3493 4.64495 18.1155 4.38376 17.8659 4.13414C16.874 3.14238 15.7053 2.39215 14.4311 1.91175Z" fill="white"/>
</svg>
