<svg width="18" height="22" viewBox="0 0 18 22" fill="none" xmlns="http://www.w3.org/2000/svg">
<path d="M16.9898 9C16.9898 15.2143 9 20.5408 9 20.5408C9 20.5408 1.0102 15.2143 1.0102 9C1.0102 6.88098 1.85198 4.84874 3.35036 3.35036C4.84874 1.85198 6.88098 1.0102 9 1.0102C11.119 1.0102 13.1513 1.85198 14.6496 3.35036C16.148 4.84874 16.9898 6.88098 16.9898 9Z" stroke="white" stroke-width="2" stroke-linecap="round" stroke-linejoin="round"/>
<path d="M8.99998 11.663C10.4709 11.663 11.6632 10.4706 11.6632 8.99973C11.6632 7.52885 10.4709 6.33647 8.99998 6.33647C7.5291 6.33647 6.33671 7.52885 6.33671 8.99973C6.33671 10.4706 7.5291 11.663 8.99998 11.663Z" stroke="white" stroke-width="2" stroke-linecap="round" stroke-linejoin="round"/>
</svg>
