<svg width="17" height="16" viewBox="0 0 17 16" fill="none" xmlns="http://www.w3.org/2000/svg">
<path d="M14.0781 14C12.6378 14 11.2064 13.6667 9.78385 13C8.36128 12.3333 7.08333 11.4667 5.95 10.4C4.81667 9.33333 3.89583 8.13056 3.1875 6.79167C2.47917 5.45278 2.125 4.10556 2.125 2.75C2.125 2.53889 2.20174 2.36111 2.35521 2.21667C2.50868 2.07222 2.69757 2 2.92188 2H5.40104C5.56632 2 5.71094 2.05278 5.8349 2.15833C5.95885 2.26389 6.03854 2.40556 6.07396 2.58333L6.55208 4.68333C6.57569 4.83889 6.57274 4.98056 6.54323 5.10833C6.51372 5.23611 6.45174 5.34444 6.35729 5.43333L4.58646 7.11667C5.24757 8.15 5.98837 9.05 6.80885 9.81667C7.62934 10.5833 8.55903 11.2333 9.59792 11.7667L11.2802 10.1333C11.3983 10.0111 11.534 9.925 11.6875 9.875C11.841 9.825 11.9944 9.81667 12.1479 9.85L14.2552 10.2833C14.4323 10.3167 14.5799 10.4 14.6979 10.5333C14.816 10.6667 14.875 10.8222 14.875 11V13.25C14.875 13.4611 14.7983 13.6389 14.6448 13.7833C14.4913 13.9278 14.3024 14 14.0781 14ZM4.05521 6.2L5.48958 4.83333L5.08229 3H3.1875C3.1875 3.43333 3.25833 3.90833 3.4 4.425C3.54167 4.94167 3.76007 5.53333 4.05521 6.2ZM13.8125 13V11.2167L11.9885 10.8667L10.5896 12.25C11.0736 12.4611 11.599 12.6333 12.1656 12.7667C12.7323 12.9 13.2812 12.9778 13.8125 13Z" fill="#5ED6FF"/>
</svg>
