<svg width="20" height="24" viewBox="0 0 20 24" fill="none" xmlns="http://www.w3.org/2000/svg">
<path d="M7.42267 12.199L6.82943 13.3341C6.72942 13.5255 6.73621 13.7552 6.84737 13.9403C6.9195 14.0605 7.02884 14.1506 7.15571 14.1996C7.22437 14.2261 7.29817 14.2405 7.37398 14.2411L8.75022 14.2517L9.77694 15.1682C9.93805 15.3121 10.1624 15.3616 10.369 15.2992C10.5758 15.2367 10.735 15.0711 10.7895 14.8622L11.1125 13.6228L12.3919 12.9089C12.5877 12.7997 12.7093 12.5931 12.7097 12.369C12.7102 12.1447 12.5895 11.9377 12.3942 11.8277L11.2449 11.1801L11.0684 9.76141C11.0402 9.5347 10.8896 9.34189 10.6764 9.25965C10.4633 9.17741 10.2222 9.21907 10.049 9.36808L8.96529 10.3005L7.67898 10.0083C7.46031 9.95861 7.23191 10.0309 7.08164 10.1973C6.93136 10.3638 6.88269 10.5984 6.95436 10.8108L7.42267 12.199ZM8.99535 11.5786C9.18703 11.6221 9.38797 11.5722 9.53695 11.444L9.98099 11.062L10.0533 11.6433C10.0776 11.8383 10.1929 12.0103 10.3642 12.1067L10.8225 12.365L10.2774 12.6691C10.1298 12.7515 10.0223 12.8905 9.97966 13.0541L9.84576 13.5679L9.40149 13.1713C9.28916 13.071 9.14413 13.015 8.9935 13.0139L8.39797 13.0093L8.64389 12.5387C8.72216 12.3889 8.73589 12.2136 8.68186 12.0535L8.4823 11.462L8.99535 11.5786Z" fill="white"/>
<path d="M18.8406 4.22004L15.0482 2.75669C14.7288 2.63347 14.37 2.79248 14.2468 3.11183C14.246 3.11369 14.2453 3.11561 14.2446 3.11756C14.0047 3.73246 13.31 4.03918 12.6937 3.80137C12.0778 3.56373 11.7692 2.87071 12.0036 2.25434C12.0046 2.25199 12.0055 2.24965 12.0064 2.24734C12.1296 1.92798 11.9706 1.56917 11.6513 1.44594L8.01297 0.0420994C7.69361 -0.0811265 7.3348 0.0778828 7.21157 0.397242L0.0417393 18.979C-0.0814865 19.2984 0.0775227 19.6572 0.396882 19.7804L4.03517 21.1842C4.35453 21.3075 4.71334 21.1485 4.83656 20.8291C4.83746 20.8268 4.83835 20.8245 4.83922 20.8221C5.07953 20.208 5.77369 19.9019 6.38959 20.1396C7.00587 20.3773 7.3145 21.0712 7.07918 21.6879C7.07839 21.6898 7.07765 21.6917 7.07694 21.6935C6.95371 22.0129 7.11272 22.3717 7.43208 22.4949L11.2246 23.9583C11.5439 24.0815 11.9027 23.9225 12.026 23.6031L19.1958 5.02143C19.319 4.70208 19.16 4.34328 18.8406 4.22004ZM11.0925 22.5787L8.38265 21.533C8.50369 20.4571 7.8921 19.3906 6.83583 18.9831C5.77956 18.5755 4.61005 18.9548 3.97708 19.8331L1.42143 18.847L2.9344 14.9259L12.6055 18.6576L11.0925 22.5787ZM13.0518 17.501L3.38069 13.7694L6.18582 6.49947L15.8569 10.2311L13.0518 17.501L13.0518 17.501ZM16.3031 9.07455L6.63208 5.34293L8.14504 1.42184L10.7007 2.40794C10.5796 3.48383 11.1912 4.55037 12.2475 4.95793C13.3037 5.36548 14.4733 4.9862 15.1063 4.10784L17.8162 5.15346L16.3032 9.07456L16.3031 9.07455Z" fill="white"/>
</svg>
